Coordinates
version=1
nRows=4
nColumns=107
inDegrees=yes

Units are S.I. units (second, meters, Newtons, ...)
If the header above contains a line with 'inDegrees', this indicates whether rotational values are in degrees (yes) or radians (no).

endheader
time	sternoclavicular_r2	sternoclavicular_r3	unrotscap_r3	unrotscap_r2	acromioclavicular_r2	acromioclavicular_r3	acromioclavicular_r1	unrothum_r1	unrothum_r3	unrothum_r2	elv_angle	shoulder_elv	shoulder1_r2	shoulder_rot	elbow_flexion	pro_sup	deviation	flexion	proximal_distal_r1	proximal_distal_r3	cmc_flexion	cmc_abduction	mp_flexion	ip_flexion	mcp2_flexion	mcp2_abduction	pm2_flexion	md2_flexion	mcp3_flexion	mcp3_abduction	pm3_flexion	md3_flexion	mcp4_flexion	mcp4_abduction	pm4_flexion	md4_flexion	mcp5_flexion	mcp5_abduction	pm5_flexion	md5_flexion	bicpt_tx	bicpt_ty	bicpt_tz	bicpt2_tx	bicpt2_ty	bicpt2_tz	ptpt_tx	ptpt_ty	ptpt_tz	FCUpt_tx	FCUpt_ty	FCUpt_tz	EDCpt_tx	EDCpt_ty	EDCpt_tz	APLpt_tx	APLpt_ty	APLpt_tz	FPLpt_tx	FPLpt_ty	FPLpt_tz	FPLpt2_tx	FPLpt2_ty	FPLpt2_tz	PEC1pt2_tx	PEC1pt2_ty	PEC1pt2_tz	PEC1pt3_tx	PEC1pt3_ty	PEC1pt3_tz	PEC2pt2_tx	PEC2pt2_ty	PEC2pt2_tz	PEC2pt3_tx	PEC2pt3_ty	PEC2pt3_tz	PEC3pt2_tx	PEC3pt2_ty	PEC3pt2_tz	PEC3pt3_tx	PEC3pt3_ty	PEC3pt3_tz	DELT2pt2a_tx	DELT2pt2a_ty	DELT2pt2a_tz	DELT2pt2_tx	DELT2pt2_ty	DELT2pt2_tz	LAT1pt2_tx	LAT1pt2_ty	LAT1pt2_tz	LAT1pt3_tx	LAT1pt3_ty	LAT1pt3_tz	LAT2pt2_tx	LAT2pt2_ty	LAT2pt2_tz	LAT2pt3_tx	LAT2pt3_ty	LAT2pt3_tz	LAT3pt2_tx	LAT3pt2_ty	LAT3pt2_tz	LAT3pt3_tx	LAT3pt3_ty	LAT3pt3_tz
      0.00000000	     -0.33679781	      0.14265166	     -0.14265166	      0.33679781	     -0.06819470	      0.55112562	      0.24772717	     -0.24772717	     -0.55112562	      0.06819470	     96.76906871	     79.73987455	     -1.68893886	     -8.86794554	     29.04430527	     33.09538863	      0.27711618	     -0.06224928	      0.31322991	     -0.03112464	     31.71888162	     -8.78636342	    -13.34917750	      5.22698639	     -5.22125189	     10.23315910	     18.41992111	    -15.14800190	     -4.32036337	      0.73479381	     12.16160907	     15.46503152	      2.55186400	     -6.14324588	    -13.77104018	     21.13016834	     -0.71805120	    -13.89883881	     -6.44988854	      5.06127241	      0.00086070	     -0.03092892	     -0.00483620	      0.01650698	     -0.01809003	     -0.00817369	      0.00510462	     -0.06648122	     -0.00271601	      0.00709245	     -0.18363193	     -0.00031946	     -0.00397144	      0.00110673	      0.00018307	      0.00006044	      0.00002418	      0.00012089	      0.00007737	      0.00023211	      0.00013056	     -0.00001059	     -0.00023403	     -0.00028084	      0.00261370	      0.00917009	      0.00637920	     -0.00854989	      0.02064378	     -0.01958059	      0.00261370	      0.00917009	      0.00637920	      0.00057590	      0.01913759	     -0.01005609	      0.00408085	      0.00509937	      0.01628324	      0.00000000	      0.00850938	      0.00000000	     -0.00748669	     -0.03459827	     -0.00702017	      0.00652379	     -0.00011730	     -0.00049615	     -0.00093030	      0.01559359	     -0.00637920	      0.00256940	      0.02250438	     -0.01860599	     -0.00624630	      0.01351149	     -0.00571470	     -0.01302419	      0.02852918	     -0.03194028	     -0.02445358	      0.01510629	     -0.00766389	     -0.01621379	      0.03295918	     -0.03991427
      0.03333333	     -0.33684550	      0.14267185	     -0.14267185	      0.33684550	     -0.06820436	      0.55120366	      0.24776225	     -0.24776225	     -0.55120366	      0.06820436	     96.78406569	     79.75116565	     -1.68920061	     -8.86606085	     29.05559734	     33.09839412	      0.27712978	     -0.06228677	      0.31324203	     -0.03114339	     31.71879914	     -8.78502384	    -13.34942054	      5.22704247	     -5.22214425	     10.23373410	     18.41983379	    -15.14802552	     -4.32268185	      0.73385189	     12.16139558	     15.46486477	      2.54915090	     -6.14324439	    -13.77191002	     21.12989447	     -0.71840862	    -13.89880635	     -6.45001277	      5.06127049	      0.00086107	     -0.03093022	     -0.00483641	      0.01650703	     -0.01809310	     -0.00817339	      0.00510440	     -0.06648136	     -0.00271625	      0.00709274	     -0.18363187	     -0.00031949	     -0.00397180	      0.00110684	      0.00018306	      0.00006048	      0.00002419	      0.00012096	      0.00007741	      0.00023224	      0.00013063	     -0.00001059	     -0.00023404	     -0.00028084	      0.00261407	      0.00917139	      0.00638010	     -0.00855110	      0.02064671	     -0.01958336	      0.00261407	      0.00917139	      0.00638010	      0.00057598	      0.01914030	     -0.01005752	      0.00408126	      0.00510009	      0.01628419	      0.00000000	      0.00851181	      0.00000000	     -0.00748775	     -0.03460317	     -0.00702218	      0.00652233	     -0.00011726	     -0.00049600	     -0.00093043	      0.01559580	     -0.00638010	      0.00256976	      0.02250757	     -0.01860862	     -0.00624718	      0.01351340	     -0.00571551	     -0.01302603	      0.02853322	     -0.03194480	     -0.02445704	      0.01510843	     -0.00766498	     -0.01621608	      0.03296384	     -0.03991992
      0.06666667	     -0.33202957	      0.14063205	     -0.14063205	      0.33202957	     -0.06722923	      0.54332302	      0.24421996	     -0.24421996	     -0.54332302	      0.06722923	     97.48903684	     78.61095168	     -1.70150468	    -13.88960146	     29.40110515	     38.53498353	      0.25937320	     -0.03399882	      0.29694147	     -0.01699941	     32.28243507	     -8.46486872	    -14.89141386	      6.88361674	     -6.57828882	     10.42578592	     19.34338909	    -14.02528634	     -5.39809883	      0.33019030	     12.81613869	     14.66275104	      0.80560966	     -6.28027167	    -11.30710821	     19.67151612	     -0.89002253	    -13.87025555	     -6.60878163	      5.07284884	      0.00087250	     -0.03096982	     -0.00484279	      0.01656921	     -0.01818695	     -0.00762492	      0.00470270	     -0.06674111	     -0.00315420	      0.00763307	     -0.18352523	     -0.00037521	     -0.00462419	      0.00132098	      0.00015636	      0.00003382	      0.00001353	      0.00006764	      0.00004329	      0.00012988	      0.00007306	     -0.00001113	     -0.00022809	     -0.00027371	      0.00257669	      0.00904027	      0.00628888	     -0.00842885	      0.02035152	     -0.01930337	      0.00257669	      0.00904027	      0.00628888	      0.00056775	      0.01886664	     -0.00991372	      0.00403936	      0.00502718	      0.01618674	      0.00000000	      0.00826831	      0.00000000	     -0.00738070	     -0.03410845	     -0.00682020	      0.01000054	     -0.00025212	     -0.00148575	     -0.00091713	      0.01537282	     -0.00628888	      0.00253302	      0.02218578	     -0.01834257	     -0.00615786	      0.01332020	     -0.00563379	     -0.01283980	      0.02812528	     -0.03148808	     -0.02410738	      0.01489242	     -0.00755539	     -0.01598424	      0.03249255	     -0.03934918
      0.10000000	     -0.32944811	      0.13953867	     -0.13953867	      0.32944811	     -0.06670654	      0.53909880	      0.24232120	     -0.24232120	     -0.53909880	      0.06670654	     97.91391795	     77.99976926	     -1.70892025	    -16.62459943	     29.59995649	     41.18157571	      0.24853205	     -0.02737448	      0.28673550	     -0.01368724	     32.20973854	     -8.14009968	    -14.63361681	      6.04350732	     -6.58206458	     10.49931624	     19.27518656	    -14.40369836	     -5.44424510	      0.28184697	     12.60690378	     14.52628309	      0.63410437	     -6.15174902	    -11.46630161	     19.97409381	     -1.24933187	    -13.85324649	     -6.03262315	      5.06038884	      0.00087907	     -0.03099261	     -0.00484646	      0.01657502	     -0.01824097	     -0.00734292	      0.00450715	     -0.06686756	     -0.00336740	      0.00789941	     -0.18347029	     -0.00039428	     -0.00494178	      0.00142852	      0.00013756	      0.00002738	      0.00001095	      0.00005476	      0.00003505	      0.00010514	      0.00005914	     -0.00001107	     -0.00022888	     -0.00027465	      0.00255666	      0.00896998	      0.00623999	     -0.00836332	      0.02019329	     -0.01915329	      0.00255666	      0.00896998	      0.00623999	      0.00056333	      0.01871996	     -0.00983665	      0.00401670	      0.00498809	      0.01613327	      0.00000000	      0.00813928	      0.00000000	     -0.00732332	     -0.03384326	     -0.00671315	      0.01175228	     -0.00033060	     -0.00221876	     -0.00091000	      0.01525330	     -0.00623999	      0.00251333	      0.02201329	     -0.01819996	     -0.00610999	      0.01321664	     -0.00558999	     -0.01273997	      0.02790661	     -0.03124327	     -0.02391995	      0.01477664	     -0.00749665	     -0.01585997	      0.03223993	     -0.03904325
